<svg width="22" height="21" viewBox="0 0 22 21" fill="none" xmlns="http://www.w3.org/2000/svg">
<path d="M6.71691 2.58594V4.52546M15.768 2.58594V4.52546M3.48438 16.1626V6.46498C3.48437 5.95059 3.68872 5.45726 4.05245 5.09353C4.41618 4.7298 4.9095 4.52546 5.4239 4.52546H17.061C17.5754 4.52546 18.0687 4.7298 18.4325 5.09353C18.7962 5.45726 19.0006 5.95059 19.0006 6.46498V16.1626M3.48438 16.1626C3.48437 16.677 3.68872 17.1703 4.05245 17.534C4.41618 17.8978 4.9095 18.1021 5.4239 18.1021H17.061C17.5754 18.1021 18.0687 17.8978 18.4325 17.534C18.7962 17.1703 19.0006 16.677 19.0006 16.1626M3.48438 16.1626V9.69752C3.48437 9.18313 3.68872 8.6898 4.05245 8.32607C4.41618 7.96234 4.9095 7.758 5.4239 7.758H17.061C17.5754 7.758 18.0687 7.96234 18.4325 8.32607C18.7962 8.6898 19.0006 9.18313 19.0006 9.69752V16.1626M11.2425 10.9905H11.2494V10.9974H11.2425V10.9905ZM11.2425 12.9301H11.2494V12.937H11.2425V12.9301ZM11.2425 14.8696H11.2494V14.8765H11.2425V14.8696ZM9.30294 12.9301H9.30984V12.937H9.30294V12.9301ZM9.30294 14.8696H9.30984V14.8765H9.30294V14.8696ZM7.36342 12.9301H7.37032V12.937H7.36342V12.9301ZM7.36342 14.8696H7.37032V14.8765H7.36342V14.8696ZM13.182 10.9905H13.1889V10.9974H13.182V10.9905ZM13.182 12.9301H13.1889V12.937H13.182V12.9301ZM13.182 14.8696H13.1889V14.8765H13.182V14.8696ZM15.1215 10.9905H15.1284V10.9974H15.1215V10.9905ZM15.1215 12.9301H15.1284V12.937H15.1215V12.9301Z" stroke="black" stroke-width="1.03441" stroke-linecap="round" stroke-linejoin="round"/>
</svg>
