<svg width="22" height="22" viewBox="0 0 22 22" fill="none" xmlns="http://www.w3.org/2000/svg">
<path d="M13.4012 9.59026C13.4012 10.3011 13.1189 10.9828 12.6162 11.4854C12.1136 11.988 11.4319 12.2704 10.7211 12.2704C10.0103 12.2704 9.32862 11.988 8.826 11.4854C8.32338 10.9828 8.04102 10.3011 8.04102 9.59026C8.04102 8.87946 8.32338 8.19776 8.826 7.69514C9.32862 7.19252 10.0103 6.91016 10.7211 6.91016C11.4319 6.91016 12.1136 7.19252 12.6162 7.69514C13.1189 8.19776 13.4012 8.87946 13.4012 9.59026V9.59026Z" stroke="black" stroke-width="1.04456" stroke-linecap="round" stroke-linejoin="round"/>
<path d="M17.4201 9.5909C17.4201 15.9713 10.7198 19.6413 10.7198 19.6413C10.7198 19.6413 4.01953 15.9713 4.01953 9.5909C4.01953 7.81387 4.72545 6.10963 5.982 4.85309C7.23854 3.59654 8.94278 2.89063 10.7198 2.89062C12.4968 2.89063 14.2011 3.59654 15.4576 4.85309C16.7142 6.10963 17.4201 7.81387 17.4201 9.5909V9.5909Z" stroke="black" stroke-width="1.04456" stroke-linecap="round" stroke-linejoin="round"/>
</svg>
